<svg xmlns="http://www.w3.org/2000/svg" viewBox="0 0 512 512">
  <rect width="512" height="512" rx="96" fill="#1e293b"/>
  <rect x="80" y="120" width="352" height="44" rx="8" fill="#3b82f6" opacity="0.3"/>
  <rect x="80" y="120" width="220" height="44" rx="8" fill="#3b82f6"/>
  <circle cx="104" cy="142" r="10" fill="#fff"/>
  <rect x="124" y="134" width="140" height="16" rx="4" fill="#fff"/>
  <rect x="80" y="188" width="352" height="44" rx="8" fill="#10b981" opacity="0.3"/>
  <rect x="80" y="188" width="300" height="44" rx="8" fill="#10b981"/>
  <circle cx="104" cy="210" r="10" fill="#fff"/>
  <rect x="124" y="202" width="120" height="16" rx="4" fill="#fff"/>
  <rect x="80" y="256" width="352" height="44" rx="8" fill="#f59e0b" opacity="0.3"/>
  <rect x="80" y="256" width="260" height="44" rx="8" fill="#f59e0b"/>
  <circle cx="104" cy="278" r="10" fill="#fff"/>
  <rect x="124" y="270" width="100" height="16" rx="4" fill="#fff"/>
  <rect x="80" y="324" width="352" height="44" rx="8" fill="#8b5cf6" opacity="0.3"/>
  <rect x="80" y="324" width="180" height="44" rx="8" fill="#8b5cf6"/>
  <circle cx="104" cy="346" r="10" fill="#fff"/>
  <rect x="124" y="338" width="80" height="16" rx="4" fill="#fff"/>
  <text x="256" y="430" text-anchor="middle" font-family="Arial,sans-serif" font-size="42" font-weight="700" fill="#94a3b8">RUNBOOK</text>
</svg>
